<svg width="26" height="26" viewBox="0 0 26 26" fill="none" xmlns="http://www.w3.org/2000/svg">
<path fill-rule="evenodd" clip-rule="evenodd" d="M12.9999 3.52081C7.76472 3.52081 3.52075 7.76478 3.52075 13C3.52075 18.2352 7.76472 22.4791 12.9999 22.4791C18.2351 22.4791 22.4791 18.2352 22.4791 13C22.4791 7.76478 18.2351 3.52081 12.9999 3.52081ZM5.14575 13C5.14575 8.66224 8.66218 5.14581 12.9999 5.14581C17.3377 5.14581 20.8541 8.66224 20.8541 13C20.8541 17.3377 17.3377 20.8541 12.9999 20.8541C8.66218 20.8541 5.14575 17.3377 5.14575 13Z" fill="black"/>
<path d="M13.8125 7.58331C13.8125 7.13458 13.4487 6.77081 13 6.77081C12.5513 6.77081 12.1875 7.13458 12.1875 7.58331V13C12.1875 13.2801 12.3318 13.5405 12.5694 13.689L15.8194 15.7202C16.1999 15.9581 16.7012 15.8424 16.939 15.4619C17.1768 15.0813 17.0611 14.5801 16.6806 14.3422L13.8125 12.5497V7.58331Z" fill="#0B6EFD"/>
</svg>
