<svg width="54" height="54" viewBox="0 0 54 54" fill="none" xmlns="http://www.w3.org/2000/svg">
<path fill-rule="evenodd" clip-rule="evenodd" d="M12.28 8.07288H23.8457V39.6157H17.5354L17.099 14.3806H12.28V8.07288Z" fill="white"/>
<g clip-path="url(#clip0_930_11152)">
<path d="M10.4961 9.94287H22.6654V40.9303H16.2157V15.8454H10.4961V9.94287Z" fill="#45D0FF"/>
<path d="M24.3203 39.6799H17.8681C17.7521 39.6792 17.6411 39.6315 17.5591 39.5469C17.477 39.4624 17.4307 39.3479 17.43 39.2284V14.5874H12.1461C12.0303 14.5868 11.9195 14.5389 11.8379 14.4543C11.7563 14.3697 11.7104 14.2552 11.7104 14.1359V8.23845C11.7104 8.17948 11.7217 8.12109 11.7436 8.06662C11.7655 8.01214 11.7976 7.96264 11.8381 7.92094C11.8785 7.87925 11.9265 7.84617 11.9794 7.82361C12.0322 7.80104 12.0889 7.78943 12.1461 7.78943H24.3154C24.431 7.78943 24.5418 7.83674 24.6235 7.92094C24.7052 8.00515 24.7511 8.11936 24.7511 8.23845V39.2284C24.7511 39.3468 24.706 39.4606 24.6254 39.545C24.5448 39.6295 24.4352 39.6779 24.3203 39.6799ZM18.3038 38.7768H23.8822V8.70252H12.5842V13.6844H17.8681C17.9839 13.6851 18.0947 13.7329 18.1763 13.8175C18.258 13.9021 18.3038 14.0166 18.3038 14.1359V38.7768Z" fill="black"/>
<path d="M42.5548 26.4958H20.7668V44.1607H42.5548V26.4958Z" fill="white"/>
<path d="M22.3369 27.5801H40.6955C41.0508 27.5801 41.338 27.7482 41.338 27.9589V42.5834C41.338 42.7942 41.0508 42.9622 40.6955 42.9622H22.3369C21.9815 42.9622 21.6943 42.7942 21.6943 42.5834V27.9589C21.6943 27.7482 21.9815 27.5801 22.3369 27.5801Z" fill="#3589DB"/>
<path d="M19.5281 27.8559V42.6861C19.5287 43.3413 19.7815 43.9693 20.231 44.4326C20.6804 44.8958 21.2898 45.1563 21.9254 45.157H41.1116C41.722 45.1569 42.3095 44.9168 42.754 44.4856C43.1986 44.0544 43.4669 43.4647 43.504 42.8367V27.7054C43.4669 27.0774 43.1986 26.4877 42.754 26.0565C42.3095 25.6253 41.722 25.3852 41.1116 25.3851H21.9254C21.2898 25.3857 20.6804 25.6463 20.231 26.1095C19.7815 26.5727 19.5287 27.2008 19.5281 27.8559ZM22.7237 27.0306H41.1116C41.3235 27.0313 41.5266 27.1185 41.6762 27.2732C41.8258 27.428 41.9099 27.6375 41.9099 27.8559V42.6861C41.9099 42.9046 41.8258 43.1141 41.6762 43.2688C41.5266 43.4235 41.3235 43.5108 41.1116 43.5114H21.9254C21.7133 43.5108 21.51 43.4236 21.3599 43.269C21.2099 43.1144 21.1253 42.9048 21.1247 42.6861V27.8559C21.1253 27.6373 21.2099 27.4277 21.3599 27.2731C21.51 27.1185 21.7133 27.0313 21.9254 27.0306H22.7237Z" fill="#091317"/>
<path d="M35.2945 21.6975V25.3875H33.6955V22.3171C33.6955 22.1614 33.6355 22.0121 33.5287 21.902C33.4219 21.792 33.277 21.7301 33.126 21.7301H29.9401C29.789 21.7301 29.6441 21.792 29.5373 21.902C29.4305 22.0121 29.3705 22.1614 29.3705 22.3171V25.3875H27.7739V21.6975C27.7739 21.2691 27.9391 20.8582 28.233 20.5552C28.527 20.2522 28.9256 20.082 29.3413 20.082H33.7223C33.9285 20.0814 34.1328 20.1227 34.3236 20.2036C34.5143 20.2845 34.6877 20.4033 34.8337 20.5534C34.9798 20.7035 35.0957 20.8818 35.1748 21.0781C35.2538 21.2745 35.2945 21.4849 35.2945 21.6975Z" fill="#091317"/>
<path d="M41.9268 31.1815V32.8295H32.3325V39.0155C32.3212 39.2262 32.2321 39.4244 32.0834 39.5694C31.9347 39.7145 31.7377 39.7953 31.533 39.7953C31.3282 39.7953 31.1313 39.7145 30.9826 39.5694C30.8339 39.4244 30.7447 39.2262 30.7335 39.0155V32.8295H21.1416V31.1815H41.9268Z" fill="#091317"/>
</g>
<defs>
<clipPath id="clip0_930_11152">
<rect width="33.6457" height="38.9029" fill="white" transform="translate(10.1772 7.02209)"/>
</clipPath>
</defs>
</svg>
