<svg width="30" height="30" viewBox="0 0 30 30" fill="none" xmlns="http://www.w3.org/2000/svg">
<path fill-rule="evenodd" clip-rule="evenodd" d="M4.40549 11.0711C4.84839 5.6978 9.33858 1.5625 14.7301 1.5625H15.27C20.6615 1.5625 25.1517 5.6978 25.5946 11.0711C25.8325 13.9575 24.9409 16.8236 23.1076 19.0657L17.1163 26.3929C16.0225 27.7306 13.9776 27.7306 12.8838 26.393L6.89249 19.0657C5.05916 16.8236 4.16756 13.9575 4.40549 11.0711ZM14.7301 3.4375C10.3144 3.4375 6.63689 6.82435 6.27415 11.2251C6.07613 13.6274 6.81819 16.0128 8.34401 17.8788L14.3353 25.2061C14.6789 25.6262 15.3212 25.6262 15.6647 25.2061L21.6561 17.8788C23.1819 16.0128 23.9239 13.6274 23.7259 11.2251C23.3632 6.82435 19.6857 3.4375 15.27 3.4375H14.7301Z" fill="#3C3C3C"/>
<path fill-rule="evenodd" clip-rule="evenodd" d="M19.4754 10.2746C19.8415 10.6407 19.8415 11.2343 19.4754 11.6004L15.1004 15.9754C14.7343 16.3415 14.1407 16.3415 13.7746 15.9754L11.2746 13.4754C10.9085 13.1093 10.9085 12.5157 11.2746 12.1496C11.6407 11.7835 12.2343 11.7835 12.6004 12.1496L14.4375 13.9867L18.1496 10.2746C18.5157 9.90847 19.1093 9.90847 19.4754 10.2746Z" fill="#0B6EFD"/>
</svg>
