<svg width="28" height="28" viewBox="0 0 28 28" fill="none" xmlns="http://www.w3.org/2000/svg">
<g clip-path="url(#clip0_639_3175)">
<g filter="url(#filter0_b_639_3175)">
<path d="M24.4732 5.99608L17.0233 3.22657C14.3085 2.21733 12.1724 3.20489 11.1173 5.95716L8.22459 13.5026C7.16944 16.2548 8.1098 18.386 10.8247 19.3953L18.2746 22.1648C20.9895 23.174 23.1184 22.1838 24.1735 19.4316L27.0662 11.8862C28.1214 9.13389 27.1881 7.00532 24.4732 5.99608Z" fill="#7BB1FF"/>
</g>
<g opacity="0.5" filter="url(#filter1_f_639_3175)">
<path d="M21.566 16.5192L23.5749 11.3356C24.3035 9.45534 23.7876 8.00705 22.1766 7.40127L16.7204 5.34953C15.083 4.73381 13.7397 5.48296 13.011 7.36319L11.0021 12.5468C10.2617 14.4573 10.7685 15.8668 12.4059 16.4825L17.8621 18.5342C19.4731 19.14 20.8256 18.4297 21.566 16.5192Z" fill="#7BB1FF"/>
</g>
<g filter="url(#filter2_b_639_3175)">
<path d="M18.0732 4L9.11444 4C5.84972 4 4 5.88775 4 9.21957V18.3538C4 21.6857 5.84972 23.5734 9.11444 23.5734H18.0732C21.338 23.5734 23.1792 21.6857 23.1792 18.3538V9.21957C23.1792 5.88775 21.338 4 18.0732 4Z" fill="#0B6EFD" fill-opacity="0.35"/>
</g>
<g filter="url(#filter3_b_639_3175)">
<path fill-rule="evenodd" clip-rule="evenodd" d="M13.6235 8.00171C13.1888 8.00171 12.8308 8.36708 12.8308 8.81944V18.754C12.8308 19.1977 13.1888 19.5631 13.6235 19.5631C14.0668 19.5631 14.4248 19.1977 14.4248 18.754V8.81944C14.4248 8.36708 14.0668 8.00171 13.6235 8.00171ZM9.14845 11.212C8.71372 11.212 8.35571 11.5774 8.35571 12.0297V18.7543C8.35571 19.198 8.71372 19.5633 9.14845 19.5633C9.5917 19.5633 9.94971 19.198 9.94971 18.7543V12.0297C9.94971 11.5774 9.5917 11.212 9.14845 11.212ZM17.2379 15.579C17.2379 15.1267 17.5959 14.7613 18.0392 14.7613C18.4739 14.7613 18.8319 15.1267 18.8319 15.579V18.7543C18.8319 19.1979 18.4739 19.5633 18.0307 19.5633C17.5959 19.5633 17.2379 19.1979 17.2379 18.7543V15.579Z" fill="url(#paint0_linear_639_3175)"/>
</g>
</g>
<defs>
<filter id="filter0_b_639_3175" x="-5.198" y="-10.1599" width="45.6882" height="45.7107" filterUnits="userSpaceOnUse" color-interpolation-filters="sRGB">
<feFlood flood-opacity="0" result="BackgroundImageFix"/>
<feGaussianBlur in="BackgroundImageFix" stdDeviation="6.5"/>
<feComposite in2="SourceAlpha" operator="in" result="effect1_backgroundBlur_639_3175"/>
<feBlend mode="normal" in="SourceGraphic" in2="effect1_backgroundBlur_639_3175" result="shape"/>
</filter>
<filter id="filter1_f_639_3175" x="8.66943" y="3.13843" width="17.2292" height="17.6064" filterUnits="userSpaceOnUse" color-interpolation-filters="sRGB">
<feFlood flood-opacity="0" result="BackgroundImageFix"/>
<feBlend mode="normal" in="SourceGraphic" in2="BackgroundImageFix" result="shape"/>
<feGaussianBlur stdDeviation="1" result="effect1_foregroundBlur_639_3175"/>
</filter>
<filter id="filter2_b_639_3175" x="2" y="2" width="23.1792" height="23.5735" filterUnits="userSpaceOnUse" color-interpolation-filters="sRGB">
<feFlood flood-opacity="0" result="BackgroundImageFix"/>
<feGaussianBlur in="BackgroundImageFix" stdDeviation="1"/>
<feComposite in2="SourceAlpha" operator="in" result="effect1_backgroundBlur_639_3175"/>
<feBlend mode="normal" in="SourceGraphic" in2="effect1_backgroundBlur_639_3175" result="shape"/>
</filter>
<filter id="filter3_b_639_3175" x="-6.64429" y="-6.99829" width="40.4763" height="41.5615" filterUnits="userSpaceOnUse" color-interpolation-filters="sRGB">
<feFlood flood-opacity="0" result="BackgroundImageFix"/>
<feGaussianBlur in="BackgroundImageFix" stdDeviation="7.5"/>
<feComposite in2="SourceAlpha" operator="in" result="effect1_backgroundBlur_639_3175"/>
<feBlend mode="normal" in="SourceGraphic" in2="effect1_backgroundBlur_639_3175" result="shape"/>
</filter>
<linearGradient id="paint0_linear_639_3175" x1="5.64395" y1="16.583" x2="10.7149" y2="26.7908" gradientUnits="userSpaceOnUse">
<stop stop-color="white"/>
<stop offset="1" stop-color="white" stop-opacity="0.72"/>
</linearGradient>
<clipPath id="clip0_639_3175">
<rect width="28" height="28" fill="white"/>
</clipPath>
</defs>
</svg>
